<?xml version="1.0" encoding="utf-8"?>
<!-- Generator: Adobe Illustrator 21.1.0, SVG Export Plug-In . SVG Version: 6.00 Build 0)  -->
<svg version="1.1" id="Layer_1" xmlns="http://www.w3.org/2000/svg" xmlns:xlink="http://www.w3.org/1999/xlink" x="0px" y="0px"
	 viewBox="0 0 425.4 101.8" style="enable-background:new 0 0 425.4 101.8;" xml:space="preserve">
<style type="text/css">
	.st0{fill:#FFDD57;}
	.st1{fill:#fff;}
	.st2{fill:#FFDD57;stroke:#363636;stroke-miterlimit:10;}
	.st3{fill:#FFFFFF;}
</style>
<g>
	<path class="st0" d="M41.5,30.9h8.2l13.1,32H63l6.5-32h7.5l-8.9,42.8H60L46.8,41.9h-0.1l-6.5,31.8h-7.5L41.5,30.9z"/>
	<path class="st0" d="M90.2,74.6c-4.3,0-7.7-1.2-10-3.5s-3.5-5.7-3.5-10c0-2.6,0.4-5,1.3-7.3c0.8-2.3,2-4.3,3.6-6.1s3.4-3.2,5.6-4.2
		c2.2-1,4.6-1.6,7.3-1.6c4.3,0,7.7,1.1,10,3.4c2.4,2.3,3.5,5.6,3.5,9.9c0,2.7-0.4,5.3-1.2,7.6c-0.8,2.4-2,4.4-3.5,6.2
		c-1.5,1.7-3.4,3.1-5.6,4.1C95.4,74.1,93,74.6,90.2,74.6z M93.9,47.3c-1.8,0-3.3,0.4-4.6,1.3c-1.3,0.9-2.4,2-3.3,3.3
		s-1.5,2.8-1.9,4.5c-0.4,1.6-0.6,3.2-0.6,4.8c0,2.3,0.6,4.2,1.7,5.7c1.1,1.5,3,2.3,5.4,2.3c1.8,0,3.3-0.4,4.6-1.3
		c1.3-0.9,2.4-2,3.3-3.3c0.9-1.3,1.5-2.8,2-4.5c0.4-1.7,0.6-3.3,0.6-4.8c0-2.3-0.6-4.2-1.7-5.7C98.2,48,96.4,47.3,93.9,47.3z"/>
	<path class="st0" d="M121,33.4h6.7l-1.9,9.3h6.2l-1.1,5.1h-6.2L121.5,63c-0.2,0.7-0.3,1.3-0.4,1.9c-0.1,0.6-0.2,1.1-0.2,1.4
		c0,0.7,0.2,1.2,0.5,1.6c0.3,0.4,1,0.6,2,0.6c0.5,0,1.1,0,1.7,0c0.6,0,1.3-0.1,2-0.3l-1.1,5c-0.9,0.2-1.8,0.4-2.8,0.5
		c-1,0.1-1.9,0.2-2.8,0.2c-1.2,0-2.3-0.2-3.1-0.5c-0.8-0.3-1.4-0.8-1.9-1.3s-0.8-1.2-1-1.9c-0.2-0.7-0.3-1.4-0.3-2.1
		c0-0.6,0-1.3,0.2-2c0.1-0.7,0.2-1.2,0.3-1.5l3.5-17h-5.4l1.1-5.1h5.4L121,33.4z"/>
	<path class="st0" d="M160.6,64.1c-1.1,3.6-2.9,6.3-5.5,7.9c-2.6,1.7-5.7,2.5-9.5,2.5c-2,0-3.8-0.3-5.4-0.9
		c-1.7-0.6-3.1-1.5-4.3-2.7c-1.2-1.2-2.1-2.6-2.8-4.3c-0.7-1.7-1-3.5-1-5.7c0-2.4,0.4-4.7,1.1-7c0.8-2.3,1.9-4.3,3.3-6.1
		c1.5-1.8,3.3-3.2,5.4-4.3c2.1-1.1,4.6-1.7,7.4-1.7c2.8,0,5,0.5,6.7,1.4c1.7,0.9,3.1,2.1,4,3.5c1,1.4,1.6,2.9,2,4.6s0.5,3.3,0.5,4.8
		c0,0.8,0,1.5-0.1,2.1c-0.1,0.6-0.2,1.2-0.2,1.7H139c0,0.2-0.1,0.4-0.1,0.5c0,0.2,0,0.3,0,0.5v1c0,2.2,0.6,3.9,1.7,5.2
		c1.1,1.3,3,2,5.7,2c1.8,0,3.4-0.4,4.7-1.3c1.3-0.8,2.2-2.1,2.7-3.8H160.6z M155.6,55.5c0-0.2,0.1-0.4,0.1-0.5c0-0.1,0-0.3,0-0.5v-1
		c0-1.8-0.6-3.3-1.7-4.5c-1.2-1.2-2.8-1.8-4.8-1.8c-2.6,0-4.6,0.8-6.1,2.3c-1.5,1.5-2.6,3.5-3.3,5.9H155.6z"/>
	<path class="st1" d="M174,30.9h10.3l4.7,32.6h0.1l18.6-32.6h10.6l-8.8,42.8h-7.2l7.4-34.3h-0.1l-19.4,34.3h-5.9l-5.4-34.3h-0.1
		l-6.5,34.3h-7.2L174,30.9z"/>
	<path class="st1" d="M245.1,64.7c-0.1,0.6-0.2,1.1-0.4,1.6c-0.1,0.5-0.2,1-0.2,1.4c0,0.4,0.1,0.8,0.3,1c0.2,0.2,0.6,0.4,1.1,0.4
		c0.4,0,0.8,0,1.2-0.2c0.4-0.1,0.8-0.2,1.2-0.2l-1.1,4.9c-0.9,0.2-1.8,0.4-2.6,0.6c-0.9,0.2-1.8,0.3-2.7,0.3c-1.2,0-2.1-0.4-2.9-1.1
		c-0.8-0.7-1.2-1.7-1.3-2.9c-1.4,1.4-3,2.4-4.8,3s-3.7,1-5.6,1c-1.3,0-2.5-0.2-3.7-0.5c-1.2-0.4-2.2-0.9-3.1-1.6
		c-0.9-0.7-1.6-1.5-2.1-2.6s-0.8-2.2-0.8-3.6c0-1.9,0.4-3.5,1.1-4.8c0.7-1.3,1.7-2.4,2.9-3.2c1.2-0.8,2.6-1.5,4.1-1.9
		c1.6-0.4,3.2-0.7,4.9-0.8c2.3-0.2,4.6-0.3,6.8-0.5c1.2-0.1,2.1-0.5,2.7-1.2c0.6-0.7,0.9-1.7,0.9-2.9c0-1.5-0.5-2.5-1.6-3
		c-1-0.5-2.3-0.8-3.7-0.8c-1.9,0-3.6,0.3-5,1s-2.3,2-2.8,3.9h-6.5c0.4-1.9,1-3.5,1.9-4.8s2-2.4,3.2-3.2c1.3-0.8,2.7-1.4,4.3-1.7
		s3.3-0.5,5.2-0.5c2.8,0,5,0.3,6.6,0.8c1.6,0.5,2.7,1.2,3.5,2s1.2,1.5,1.3,2.4c0.2,0.8,0.2,1.5,0.2,2.1c0,1.4-0.2,2.9-0.6,4.7
		L245.1,64.7z M224.5,65.2c0,0.8,0.2,1.4,0.5,1.9c0.3,0.5,0.8,0.9,1.3,1.2c0.5,0.3,1.1,0.5,1.7,0.7c0.6,0.1,1.3,0.2,1.9,0.2
		c1.7,0,3.1-0.3,4.2-0.8c1.1-0.6,2.1-1.3,2.8-2.3s1.3-2.1,1.7-3.4c0.4-1.3,0.8-2.7,1-4.2l-0.1-0.1c-0.5,0.5-1.1,0.8-1.9,1
		c-0.8,0.2-1.6,0.3-2.3,0.4c-1,0.1-2.1,0.2-3.3,0.2s-2.4,0.3-3.5,0.6c-1.1,0.3-2,0.9-2.8,1.6C224.9,63,224.5,63.9,224.5,65.2z"/>
	<path class="st1" d="M261.1,33.4h6.7l-1.9,9.3h6.2l-1.1,5.1h-6.2L261.6,63c-0.2,0.7-0.3,1.3-0.4,1.9c-0.1,0.6-0.2,1.1-0.2,1.4
		c0,0.7,0.2,1.2,0.5,1.6c0.3,0.4,1,0.6,2,0.6c0.5,0,1.1,0,1.7,0c0.6,0,1.3-0.1,2-0.3l-1.1,5c-0.9,0.2-1.8,0.4-2.8,0.5
		c-1,0.1-1.9,0.2-2.8,0.2c-1.2,0-2.3-0.2-3.1-0.5c-0.8-0.3-1.4-0.8-1.9-1.3s-0.8-1.2-1-1.9c-0.2-0.7-0.3-1.4-0.3-2.1
		c0-0.6,0-1.3,0.2-2c0.1-0.7,0.2-1.2,0.3-1.5l3.5-17h-5.4l1.1-5.1h5.4L261.1,33.4z"/>
	<path class="st1" d="M295.4,53c0.1-1.9-0.4-3.3-1.6-4.3c-1.1-0.9-2.6-1.4-4.6-1.4c-1.7,0-3.2,0.4-4.5,1.3s-2.3,2-3.2,3.4
		c-0.8,1.4-1.5,2.9-1.9,4.5c-0.4,1.6-0.6,3.2-0.6,4.6c0,1.2,0.1,2.2,0.4,3.2c0.2,1,0.6,1.8,1.2,2.5c0.5,0.7,1.2,1.3,2.1,1.7
		c0.9,0.4,2,0.6,3.2,0.6c2,0,3.7-0.5,5-1.6s2.2-2.6,2.8-4.5h6.8c-1.1,4-3,6.9-5.6,8.8s-6,2.8-10.1,2.8c-2,0-3.8-0.3-5.4-1
		c-1.6-0.6-2.9-1.5-3.9-2.7c-1.1-1.2-1.9-2.6-2.4-4.2s-0.8-3.4-0.8-5.4c0-2.6,0.4-5.1,1.2-7.4c0.8-2.4,2-4.4,3.5-6.2
		c1.5-1.8,3.4-3.2,5.5-4.2c2.2-1,4.6-1.6,7.4-1.6c1.7,0,3.3,0.2,4.9,0.7c1.5,0.5,2.8,1.2,4,2.1c1.1,0.9,2,2.1,2.6,3.5
		c0.6,1.4,0.9,3,0.9,4.8H295.4z"/>
	<path class="st1" d="M313,30.9h6.8l-3.4,16.2h0.1c1.2-1.6,2.7-2.8,4.5-3.8s3.7-1.4,5.7-1.4c3.1,0,5.4,0.7,6.9,2.2
		c1.5,1.5,2.2,3.5,2.2,6c0,0.6,0,1.2-0.1,1.9c0,0.7-0.1,1.4-0.2,1.9l-4.1,19.8h-6.8l4-19.1c0.1-0.5,0.2-1,0.3-1.5
		c0.1-0.5,0.1-0.9,0.1-1.4c0-0.2,0-0.6,0-1.1c0-0.5-0.2-1-0.5-1.5c-0.3-0.5-0.8-0.9-1.4-1.3s-1.6-0.5-2.8-0.5
		c-1.4,0-2.6,0.3-3.6,0.9c-1.1,0.6-2,1.3-2.8,2.1c-0.8,0.8-1.5,1.8-2.1,3c-0.6,1.2-1,2.4-1.3,3.7L311,73.7h-6.8L313,30.9z"/>
	<path class="st1" d="M368.4,64.1c-1.1,3.6-2.9,6.3-5.5,7.9c-2.6,1.7-5.7,2.5-9.5,2.5c-2,0-3.8-0.3-5.4-0.9
		c-1.7-0.6-3.1-1.5-4.3-2.7c-1.2-1.2-2.1-2.6-2.8-4.3c-0.7-1.7-1-3.5-1-5.7c0-2.4,0.4-4.7,1.1-7c0.8-2.3,1.9-4.3,3.3-6.1
		c1.5-1.8,3.3-3.2,5.4-4.3c2.1-1.1,4.6-1.7,7.4-1.7c2.8,0,5,0.5,6.7,1.4c1.7,0.9,3.1,2.1,4,3.5c1,1.4,1.6,2.9,2,4.6s0.5,3.3,0.5,4.8
		c0,0.8,0,1.5-0.1,2.1c-0.1,0.6-0.2,1.2-0.2,1.7h-23.1c0,0.2-0.1,0.4-0.1,0.5c0,0.2,0,0.3,0,0.5v1c0,2.2,0.6,3.9,1.7,5.2
		c1.1,1.3,3,2,5.7,2c1.8,0,3.4-0.4,4.7-1.3c1.3-0.8,2.2-2.1,2.7-3.8H368.4z M363.4,55.5c0-0.2,0.1-0.4,0.1-0.5c0-0.1,0-0.3,0-0.5v-1
		c0-1.8-0.6-3.3-1.7-4.5c-1.2-1.2-2.8-1.8-4.8-1.8c-2.6,0-4.6,0.8-6.1,2.3c-1.5,1.5-2.6,3.5-3.3,5.9H363.4z"/>
	<path class="st1" d="M378.4,42.7h6.5l-1.3,6.1l0.1,0.1c0.5-0.8,1.1-1.7,1.8-2.5c0.7-0.8,1.5-1.6,2.3-2.2c0.8-0.7,1.7-1.2,2.7-1.6
		c1-0.4,2-0.6,3.1-0.6c0.6,0,1.1,0,1.6,0c0.5,0,1.1,0.1,1.7,0.2l-1.4,6.5c-0.4-0.1-0.8-0.1-1.2-0.2c-0.4,0-0.8-0.1-1.2-0.1
		c-1.8,0-3.3,0.3-4.6,0.9c-1.3,0.6-2.4,1.5-3.3,2.5c-0.9,1.1-1.6,2.3-2.2,3.7c-0.6,1.4-1,2.9-1.3,4.4l-2.9,13.7H372L378.4,42.7z"/>
</g>
</svg>
